<svg width="350" height="111" viewBox="0 0 350 111" fill="none" xmlns="http://www.w3.org/2000/svg">
<path d="M51.9611 77.5001L52.047 78.9977L51.9611 77.5001ZM159.961 2L159.961 3.5L159.961 2ZM336.901 104.56C337.486 105.146 338.436 105.146 339.022 104.56L348.568 95.0145C349.154 94.4287 349.154 93.479 348.568 92.8932C347.982 92.3074 347.032 92.3074 346.446 92.8932L337.961 101.378L329.476 92.8932C328.89 92.3074 327.94 92.3074 327.355 92.8932C326.769 93.479 326.769 94.4287 327.355 95.0145L336.901 104.56ZM3.62407 104.261C3.5287 103.438 2.78428 102.848 1.96136 102.943C1.13844 103.039 0.548647 103.783 0.644018 104.606L3.62407 104.261ZM3.23767 92.6421C2.7915 93.3401 2.99566 94.2677 3.69367 94.7138C4.39169 95.16 5.31923 94.9559 5.7654 94.2578L3.23767 92.6421ZM13.7394 87.2658C14.4641 86.8644 14.7262 85.9515 14.3248 85.2268C13.9235 84.5021 13.0106 84.24 12.2859 84.6414L13.7394 87.2658ZM23.2242 80.2777C22.428 80.5064 21.968 81.3373 22.1967 82.1336C22.4255 82.9298 23.2564 83.3898 24.0526 83.1611L23.2242 80.2777ZM35.0823 80.7601C35.9002 80.6283 36.4563 79.8584 36.3245 79.0405C36.1927 78.2226 35.4228 77.6665 34.6049 77.7983L35.0823 80.7601ZM46.0884 76.4135C45.2629 76.484 44.651 77.2104 44.7216 78.0358C44.7921 78.8612 45.5185 79.4731 46.3439 79.4026L46.0884 76.4135ZM58.5408 78.576C59.3671 78.5159 59.9882 77.7974 59.9281 76.9712C59.8681 76.1449 59.1496 75.5238 58.3233 75.5838L58.5408 78.576ZM71.002 74.4567C70.1782 74.5439 69.581 75.2824 69.6682 76.1062C69.7554 76.9301 70.4939 77.5272 71.3177 77.44L71.002 74.4567ZM84.0475 75.858C84.8675 75.7402 85.4368 74.9799 85.319 74.1599C85.2012 73.3399 84.441 72.7707 83.6209 72.8884L84.0475 75.858ZM96.1379 70.8237C95.3236 70.9764 94.7873 71.7602 94.9399 72.5744C95.0926 73.3887 95.8764 73.925 96.6907 73.7724L96.1379 70.8237ZM109.247 71.1023C110.053 70.9094 110.549 70.0999 110.356 69.2943C110.163 68.4886 109.354 67.9919 108.548 68.1848L109.247 71.1023ZM120.844 64.8638C120.051 65.1041 119.604 65.9417 119.844 66.7344C120.084 67.5272 120.922 67.9751 121.715 67.7347L120.844 64.8638ZM133.854 63.5915C134.627 63.295 135.014 62.4276 134.718 61.6541C134.421 60.8805 133.554 60.4937 132.78 60.7901L133.854 63.5915ZM144.407 55.7472C143.664 56.1122 143.357 57.011 143.722 57.7546C144.087 58.4983 144.985 58.8052 145.729 58.4402L144.407 55.7472ZM157.016 52.0891C157.711 51.6389 157.91 50.7102 157.46 50.0148C157.01 49.3194 156.081 49.1206 155.386 49.5708L157.016 52.0891ZM165.326 41.9879C164.714 42.546 164.67 43.4947 165.228 44.1069C165.786 44.7192 166.735 44.7631 167.347 44.2051L165.326 41.9879ZM175.949 34.3067C176.403 33.6136 176.209 32.6839 175.516 32.2301C174.823 31.7764 173.893 31.9704 173.439 32.6635L175.949 34.3067ZM177.949 21.487C177.833 22.3072 178.404 23.0662 179.225 23.1822C180.045 23.2982 180.804 22.7273 180.92 21.907L177.949 21.487ZM178.047 8.64649C177.572 7.96771 176.636 7.80246 175.958 8.27738C175.279 8.75231 175.114 9.68757 175.589 10.3663L178.047 8.64649ZM165.95 4.17999C166.755 4.37591 167.566 3.88222 167.762 3.07729C167.958 2.27237 167.465 1.46102 166.66 1.2651L165.95 4.17999ZM153.684 2.58626C153.03 3.09383 152.91 4.03606 153.418 4.69078C153.925 5.3455 154.868 5.46479 155.522 4.95721L153.684 2.58626ZM151.175 14.1079C151.302 13.2893 150.742 12.5226 149.923 12.3955C149.105 12.2684 148.338 12.829 148.211 13.6477L151.175 14.1079ZM148.14 25.485C148.234 26.3082 148.977 26.8998 149.8 26.8064C150.623 26.713 151.215 25.97 151.121 25.1468L148.14 25.485ZM153.359 36.1617C153.13 35.3655 152.299 34.9056 151.503 35.1344C150.707 35.3632 150.247 36.1941 150.475 36.9903L153.359 36.1617ZM154.488 47.9616C154.826 48.7181 155.713 49.0578 156.469 48.7202C157.226 48.3826 157.566 47.4957 157.228 46.7392L154.488 47.9616ZM162.519 56.7035C162.081 56.0005 161.156 55.7859 160.453 56.2242C159.75 56.6625 159.535 57.5877 159.973 58.2907L162.519 56.7035ZM166.867 67.7389C167.404 68.3696 168.35 68.4454 168.981 67.9082C169.612 67.371 169.687 66.4242 169.15 65.7936L166.867 67.7389ZM177.1 73.7191C176.466 73.186 175.52 73.268 174.986 73.9021C174.453 74.5363 174.535 75.4825 175.17 76.0155L177.1 73.7191ZM184.821 82.7214C185.543 83.1275 186.458 82.8713 186.864 82.1493C187.27 81.4272 187.014 80.5127 186.292 80.1066L184.821 82.7214ZM196.521 84.5851C195.732 84.331 194.887 84.7643 194.633 85.5528C194.379 86.3413 194.812 87.1864 195.601 87.4405L196.521 84.5851ZM207.098 89.9059C207.921 89.9988 208.664 89.4067 208.757 88.5835C208.85 87.7603 208.257 87.0177 207.434 86.9248L207.098 89.9059ZM218.634 87.1409C217.808 87.1985 217.185 87.9152 217.243 88.7417C217.3 89.5681 218.017 90.1913 218.843 90.1336L218.634 87.1409ZM231.009 88.3823C231.822 88.2233 232.352 87.4353 232.193 86.6223C232.034 85.8092 231.246 85.2791 230.433 85.4381L231.009 88.3823ZM242.689 82.5485C241.89 82.7676 241.42 83.5929 241.639 84.3918C241.858 85.1907 242.683 85.6608 243.482 85.4417L242.689 82.5485ZM255.711 81.6731C256.495 81.4065 256.915 80.5546 256.648 79.7702C256.382 78.9859 255.53 78.5661 254.745 78.8327L255.711 81.6731ZM266.625 74.4859C265.853 74.7861 265.47 75.6554 265.771 76.4275C266.071 77.1997 266.94 77.5822 267.712 77.282L266.625 74.4859ZM279.533 72.5069C280.299 72.1897 280.662 71.3122 280.345 70.5469C280.027 69.7816 279.15 69.4184 278.385 69.7355L279.533 72.5069ZM290.119 64.8882C289.351 65.1985 288.98 66.0727 289.29 66.8409C289.601 67.609 290.475 67.9801 291.243 67.6698L290.119 64.8882ZM303.067 63.2616C303.854 63.0048 304.285 62.1581 304.028 61.3705C303.771 60.5829 302.924 60.1526 302.137 60.4094L303.067 63.2616ZM314.851 57.5461C314.025 57.6149 313.412 58.3399 313.48 59.1655C313.549 59.991 314.274 60.6045 315.1 60.5358L314.851 57.5461ZM326.225 62.9746C326.9 63.4541 327.836 63.2952 328.316 62.6197C328.796 61.9442 328.637 61.0078 327.961 60.5283L326.225 62.9746ZM335.549 71.5306C335.268 70.7513 334.409 70.3474 333.629 70.6284C332.85 70.9095 332.446 71.769 332.727 72.5483L335.549 71.5306ZM335.432 84.6277C335.538 85.4492 336.29 86.029 337.112 85.9226C337.934 85.8162 338.513 85.064 338.407 84.2424L335.432 84.6277ZM339.365 97.0516C339.34 96.2236 338.647 95.5732 337.819 95.599C336.991 95.6247 336.341 96.3168 336.367 97.1449L339.365 97.0516ZM4.87659 109.504C4.27602 107.791 3.829 106.029 3.62407 104.261L0.644018 104.606C0.879651 106.639 1.38792 108.621 2.04559 110.496L4.87659 109.504ZM5.7654 94.2578C7.32743 91.8141 9.84682 89.4217 13.7394 87.2658L12.2859 84.6414C8.0488 86.9881 5.11972 89.6977 3.23767 92.6421L5.7654 94.2578ZM24.0526 83.1611C27.253 82.2416 30.9113 81.4324 35.0823 80.7601L34.6049 77.7983C30.3344 78.4866 26.557 79.3202 23.2242 80.2777L24.0526 83.1611ZM46.3439 79.4026C48.1716 79.2463 50.0718 79.111 52.047 78.9977L51.8752 76.0026C49.8735 76.1174 47.9453 76.2547 46.0884 76.4135L46.3439 79.4026ZM52.047 78.9977C54.2443 78.8717 56.4088 78.7309 58.5408 78.576L58.3233 75.5838C56.2067 75.7377 54.0575 75.8774 51.8752 76.0026L52.047 78.9977ZM71.3177 77.44C75.713 76.9749 79.955 76.4458 84.0475 75.858L83.6209 72.8884C79.5665 73.4709 75.3614 73.9954 71.002 74.4567L71.3177 77.44ZM96.6907 73.7724C101.07 72.9514 105.253 72.0587 109.247 71.1023L108.548 68.1848C104.605 69.1292 100.47 70.0116 96.1379 70.8237L96.6907 73.7724ZM121.715 67.7347C126.023 66.4285 130.066 65.0428 133.854 63.5915L132.78 60.7901C129.063 62.2146 125.087 63.5773 120.844 64.8638L121.715 67.7347ZM145.729 58.4402C149.89 56.3977 153.646 54.2708 157.016 52.0891L155.386 49.5708C152.122 51.6835 148.47 53.7528 144.407 55.7472L145.729 58.4402ZM167.347 44.2051C170.946 40.925 173.796 37.5962 175.949 34.3067L173.439 32.6635C171.441 35.7159 168.763 38.8556 165.326 41.9879L167.347 44.2051ZM180.92 21.907C181.63 16.8856 180.6 12.2956 178.047 8.64649L175.589 10.3663C177.659 13.3252 178.565 17.1322 177.949 21.487L180.92 21.907ZM166.66 1.2651C164.594 0.762366 162.353 0.49997 159.961 0.5L159.961 3.5C162.134 3.49997 164.136 3.73841 165.95 4.17999L166.66 1.2651ZM159.961 0.5C157.547 0.500031 155.435 1.2291 153.684 2.58626L155.522 4.95721C156.727 4.02299 158.187 3.50002 159.961 3.5L159.961 0.5ZM148.211 13.6477C147.667 17.1518 147.651 21.1753 148.14 25.485L151.121 25.1468C150.655 21.0388 150.681 17.291 151.175 14.1079L148.211 13.6477ZM150.475 36.9903C151.513 40.6007 152.851 44.2912 154.488 47.9616L157.228 46.7392C155.647 43.196 154.357 39.637 153.359 36.1617L150.475 36.9903ZM159.973 58.2907C162.013 61.5616 164.31 64.7378 166.867 67.7389L169.15 65.7936C166.696 62.912 164.485 59.8565 162.519 56.7035L159.973 58.2907ZM175.17 76.0155C178.141 78.5136 181.358 80.7739 184.821 82.7214L186.292 80.1066C183.002 78.2562 179.938 76.1045 177.1 73.7191L175.17 76.0155ZM195.601 87.4405C199.23 88.61 203.063 89.4506 207.098 89.9059L207.434 86.9248C203.599 86.4921 199.961 85.6938 196.521 84.5851L195.601 87.4405ZM218.843 90.1336C220.754 90.0002 222.702 89.7847 224.687 89.4827L224.236 86.5168C222.33 86.8068 220.463 87.0133 218.634 87.1409L218.843 90.1336ZM224.687 89.4827C226.818 89.1583 228.926 88.7897 231.009 88.3823L230.433 85.4381C228.39 85.8378 226.324 86.1991 224.236 86.5168L224.687 89.4827ZM243.482 85.4417C247.675 84.2918 251.753 83.0183 255.711 81.6731L254.745 78.8327C250.836 80.1615 246.816 81.4168 242.689 82.5485L243.482 85.4417ZM267.712 77.282C271.809 75.689 275.754 74.0734 279.533 72.5069L278.385 69.7355C274.612 71.2993 270.691 72.905 266.625 74.4859L267.712 77.282ZM291.243 67.6698C295.46 65.9665 299.401 64.4568 303.067 63.2616L302.137 60.4094C298.374 61.6361 294.359 63.1754 290.119 64.8882L291.243 67.6698ZM315.1 60.5358C319.609 60.1602 323.275 60.881 326.225 62.9746L327.961 60.5283C324.253 57.896 319.806 57.1334 314.851 57.5461L315.1 60.5358ZM332.727 72.5483C333.89 75.7741 334.801 79.7585 335.432 84.6277L338.407 84.2424C337.757 79.2263 336.807 75.0174 335.549 71.5306L332.727 72.5483ZM336.367 97.1449C336.43 99.1634 336.461 101.28 336.461 103.5H339.461C339.461 101.252 339.429 99.1038 339.365 97.0516L336.367 97.1449Z" fill="white"/>
</svg>
