<svg width="149" height="39" viewBox="0 0 149 39" fill="none" xmlns="http://www.w3.org/2000/svg">
<path d="M51.6831 16.7676V24.3086H49.1431V14.7988H51.5249L51.6831 16.7676ZM51.3315 19.2197H50.6284C50.6284 18.5576 50.7075 17.9482 50.8657 17.3916C51.0298 16.8291 51.2671 16.3428 51.5776 15.9326C51.894 15.5166 52.2837 15.1943 52.7466 14.9658C53.2095 14.7373 53.7456 14.623 54.355 14.623C54.7769 14.623 55.1636 14.6875 55.5151 14.8164C55.8667 14.9395 56.1685 15.1357 56.4204 15.4053C56.6782 15.6689 56.8774 16.0146 57.0181 16.4424C57.1587 16.8643 57.229 17.3711 57.229 17.9629V24.3086H54.6978V18.2441C54.6978 17.8105 54.6392 17.4766 54.522 17.2422C54.4048 17.0078 54.2378 16.8438 54.021 16.75C53.8101 16.6562 53.5552 16.6094 53.2563 16.6094C52.9282 16.6094 52.6411 16.6768 52.395 16.8115C52.1548 16.9463 51.9556 17.1338 51.7974 17.374C51.6392 17.6084 51.522 17.8838 51.4458 18.2002C51.3696 18.5166 51.3315 18.8564 51.3315 19.2197ZM56.9917 18.9297L56.0864 19.0439C56.0864 18.4229 56.1626 17.8457 56.3149 17.3125C56.4731 16.7793 56.7046 16.3105 57.0093 15.9062C57.3198 15.502 57.7036 15.1885 58.1606 14.9658C58.6177 14.7373 59.145 14.623 59.7427 14.623C60.1997 14.623 60.6157 14.6904 60.9907 14.8252C61.3657 14.9541 61.6851 15.1621 61.9487 15.4492C62.2183 15.7305 62.4233 16.0996 62.564 16.5566C62.7104 17.0137 62.7837 17.5732 62.7837 18.2354V24.3086H60.2437V18.2354C60.2437 17.7959 60.1851 17.4619 60.0679 17.2334C59.9565 16.999 59.7925 16.8379 59.5757 16.75C59.3647 16.6562 59.1128 16.6094 58.8198 16.6094C58.5151 16.6094 58.2485 16.6709 58.02 16.7939C57.7915 16.9111 57.6011 17.0752 57.4487 17.2861C57.2964 17.4971 57.1821 17.7432 57.106 18.0244C57.0298 18.2998 56.9917 18.6016 56.9917 18.9297ZM69.8765 22.1641V17.9277C69.8765 17.623 69.8267 17.3623 69.7271 17.1455C69.6274 16.9229 69.4722 16.75 69.2612 16.627C69.0562 16.5039 68.7896 16.4424 68.4614 16.4424C68.1802 16.4424 67.937 16.4922 67.7319 16.5918C67.5269 16.6855 67.3687 16.8232 67.2573 17.0049C67.146 17.1807 67.0903 17.3887 67.0903 17.6289H64.5591C64.5591 17.2246 64.6528 16.8408 64.8403 16.4775C65.0278 16.1143 65.3003 15.7949 65.6577 15.5195C66.0151 15.2383 66.4399 15.0186 66.9321 14.8604C67.4302 14.7021 67.9868 14.623 68.6021 14.623C69.3403 14.623 69.9966 14.7461 70.5708 14.9922C71.145 15.2383 71.5962 15.6074 71.9243 16.0996C72.2583 16.5918 72.4253 17.207 72.4253 17.9453V22.0146C72.4253 22.5361 72.4575 22.9639 72.522 23.2979C72.5864 23.626 72.6802 23.9131 72.8032 24.1592V24.3086H70.2456C70.1226 24.0508 70.0288 23.7285 69.9644 23.3418C69.9058 22.9492 69.8765 22.5566 69.8765 22.1641ZM70.2104 18.5166L70.228 19.9492H68.813C68.479 19.9492 68.189 19.9873 67.9429 20.0635C67.6968 20.1396 67.4946 20.248 67.3364 20.3887C67.1782 20.5234 67.061 20.6816 66.9849 20.8633C66.9146 21.0449 66.8794 21.2441 66.8794 21.4609C66.8794 21.6777 66.9292 21.874 67.0288 22.0498C67.1284 22.2197 67.272 22.3545 67.4595 22.4541C67.647 22.5479 67.8667 22.5947 68.1187 22.5947C68.4995 22.5947 68.8306 22.5186 69.1118 22.3662C69.3931 22.2139 69.6099 22.0264 69.7622 21.8037C69.9204 21.5811 70.0024 21.3701 70.0083 21.1709L70.6763 22.2432C70.5825 22.4834 70.4536 22.7324 70.2896 22.9902C70.1313 23.248 69.9292 23.4912 69.6831 23.7197C69.437 23.9424 69.1411 24.127 68.7954 24.2734C68.4497 24.4141 68.0396 24.4844 67.5649 24.4844C66.9614 24.4844 66.4136 24.3643 65.9214 24.124C65.4351 23.8779 65.0483 23.541 64.7612 23.1133C64.48 22.6797 64.3394 22.1875 64.3394 21.6367C64.3394 21.1387 64.4331 20.6963 64.6206 20.3096C64.8081 19.9229 65.0835 19.5977 65.4468 19.334C65.8159 19.0645 66.2759 18.8623 66.8267 18.7275C67.3774 18.5869 68.0161 18.5166 68.7427 18.5166H70.2104ZM76.855 16.8291V24.3086H74.3237V14.7988H76.6968L76.855 16.8291ZM76.4858 19.2197H75.8003C75.8003 18.5166 75.8911 17.8838 76.0728 17.3213C76.2544 16.7529 76.5093 16.2695 76.8374 15.8711C77.1655 15.4668 77.5552 15.1592 78.0063 14.9482C78.4634 14.7314 78.9731 14.623 79.5356 14.623C79.981 14.623 80.3882 14.6875 80.7573 14.8164C81.1265 14.9453 81.4429 15.1504 81.7065 15.4316C81.9761 15.7129 82.1812 16.085 82.3218 16.5479C82.4683 17.0107 82.5415 17.5762 82.5415 18.2441V24.3086H79.9927V18.2354C79.9927 17.8135 79.9341 17.4854 79.8169 17.251C79.6997 17.0166 79.5269 16.8525 79.2983 16.7588C79.0757 16.6592 78.8003 16.6094 78.4722 16.6094C78.1323 16.6094 77.8364 16.6768 77.5845 16.8115C77.3384 16.9463 77.1333 17.1338 76.9692 17.374C76.811 17.6084 76.6909 17.8838 76.6089 18.2002C76.5269 18.5166 76.4858 18.8564 76.4858 19.2197ZM90.4868 14.7988H92.7808V23.9922C92.7808 24.8594 92.5874 25.5947 92.2007 26.1982C91.8198 26.8076 91.2866 27.2676 90.6011 27.5781C89.9155 27.8945 89.1187 28.0527 88.2104 28.0527C87.812 28.0527 87.3901 28 86.9448 27.8945C86.5054 27.7891 86.0835 27.625 85.6792 27.4023C85.2808 27.1797 84.9468 26.8984 84.6772 26.5586L85.7935 25.0645C86.0864 25.4043 86.4263 25.668 86.813 25.8555C87.1997 26.0488 87.6274 26.1455 88.0962 26.1455C88.5532 26.1455 88.9399 26.0605 89.2563 25.8906C89.5728 25.7266 89.8159 25.4834 89.9858 25.1611C90.1558 24.8447 90.2407 24.4609 90.2407 24.0098V16.9961L90.4868 14.7988ZM84.0884 19.668V19.4834C84.0884 18.7568 84.1763 18.0977 84.3521 17.5059C84.5337 16.9082 84.7886 16.3955 85.1167 15.9678C85.4507 15.54 85.855 15.209 86.3296 14.9746C86.8042 14.7402 87.3403 14.623 87.938 14.623C88.5708 14.623 89.1011 14.7402 89.5288 14.9746C89.9565 15.209 90.3081 15.543 90.5835 15.9766C90.8589 16.4043 91.0728 16.9111 91.2251 17.4971C91.3833 18.0771 91.5063 18.7129 91.5942 19.4043V19.8086C91.5063 20.4707 91.3745 21.0859 91.1987 21.6543C91.0229 22.2227 90.7915 22.7207 90.5044 23.1484C90.2173 23.5703 89.8599 23.8984 89.4321 24.1328C89.0103 24.3672 88.5063 24.4844 87.9204 24.4844C87.3345 24.4844 86.8042 24.3643 86.3296 24.124C85.8608 23.8838 85.4595 23.5469 85.1255 23.1133C84.7915 22.6797 84.5337 22.1699 84.3521 21.584C84.1763 20.998 84.0884 20.3594 84.0884 19.668ZM86.6196 19.4834V19.668C86.6196 20.0605 86.6577 20.4268 86.7339 20.7666C86.8101 21.1064 86.9272 21.4082 87.0854 21.6719C87.2495 21.9297 87.4517 22.1318 87.6919 22.2783C87.938 22.4189 88.228 22.4893 88.562 22.4893C89.0249 22.4893 89.4028 22.3926 89.6958 22.1992C89.9888 22 90.2085 21.7275 90.355 21.3818C90.5015 21.0361 90.5864 20.6377 90.6099 20.1865V19.0352C90.5981 18.666 90.5483 18.335 90.4604 18.042C90.3726 17.7432 90.2495 17.4883 90.0913 17.2773C89.9331 17.0664 89.728 16.9023 89.4761 16.7852C89.2241 16.668 88.9253 16.6094 88.5796 16.6094C88.2456 16.6094 87.9556 16.6855 87.7095 16.8379C87.4692 16.9844 87.2671 17.1865 87.103 17.4443C86.9448 17.7021 86.8247 18.0068 86.7427 18.3584C86.6606 18.7041 86.6196 19.0791 86.6196 19.4834ZM98.6782 22.5068C98.9888 22.5068 99.2642 22.4482 99.5044 22.3311C99.7446 22.208 99.9321 22.0381 100.067 21.8213C100.208 21.5986 100.281 21.3379 100.287 21.0391H102.668C102.663 21.707 102.484 22.3018 102.132 22.8232C101.781 23.3389 101.309 23.7461 100.717 24.0449C100.125 24.3379 99.4634 24.4844 98.731 24.4844C97.9927 24.4844 97.3481 24.3613 96.7974 24.1152C96.2524 23.8691 95.7983 23.5293 95.4351 23.0957C95.0718 22.6562 94.7993 22.1465 94.6177 21.5664C94.436 20.9805 94.3452 20.3535 94.3452 19.6855V19.4307C94.3452 18.7568 94.436 18.1299 94.6177 17.5498C94.7993 16.9639 95.0718 16.4541 95.4351 16.0205C95.7983 15.5811 96.2524 15.2383 96.7974 14.9922C97.3423 14.7461 97.981 14.623 98.7134 14.623C99.4927 14.623 100.175 14.7725 100.761 15.0713C101.353 15.3701 101.816 15.7979 102.15 16.3545C102.49 16.9053 102.663 17.5586 102.668 18.3145H100.287C100.281 17.998 100.213 17.7109 100.084 17.4531C99.9614 17.1953 99.7798 16.9902 99.5396 16.8379C99.3052 16.6797 99.0151 16.6006 98.6694 16.6006C98.3003 16.6006 97.9985 16.6797 97.7642 16.8379C97.5298 16.9902 97.3481 17.2012 97.2192 17.4707C97.0903 17.7344 96.9995 18.0361 96.9468 18.376C96.8999 18.71 96.8765 19.0615 96.8765 19.4307V19.6855C96.8765 20.0547 96.8999 20.4092 96.9468 20.749C96.9937 21.0889 97.0815 21.3906 97.2104 21.6543C97.3452 21.918 97.5298 22.126 97.7642 22.2783C97.9985 22.4307 98.3032 22.5068 98.6782 22.5068ZM103.732 19.6504V19.4658C103.732 18.7686 103.832 18.127 104.031 17.541C104.23 16.9492 104.52 16.4365 104.901 16.0029C105.282 15.5693 105.75 15.2324 106.307 14.9922C106.864 14.7461 107.502 14.623 108.223 14.623C108.944 14.623 109.585 14.7461 110.148 14.9922C110.71 15.2324 111.182 15.5693 111.563 16.0029C111.95 16.4365 112.243 16.9492 112.442 17.541C112.641 18.127 112.741 18.7686 112.741 19.4658V19.6504C112.741 20.3418 112.641 20.9834 112.442 21.5752C112.243 22.1611 111.95 22.6738 111.563 23.1133C111.182 23.5469 110.713 23.8838 110.157 24.124C109.6 24.3643 108.961 24.4844 108.241 24.4844C107.52 24.4844 106.878 24.3643 106.316 24.124C105.759 23.8838 105.288 23.5469 104.901 23.1133C104.52 22.6738 104.23 22.1611 104.031 21.5752C103.832 20.9834 103.732 20.3418 103.732 19.6504ZM106.263 19.4658V19.6504C106.263 20.0488 106.298 20.4209 106.369 20.7666C106.439 21.1123 106.55 21.417 106.703 21.6807C106.861 21.9385 107.066 22.1406 107.318 22.2871C107.57 22.4336 107.877 22.5068 108.241 22.5068C108.592 22.5068 108.894 22.4336 109.146 22.2871C109.398 22.1406 109.6 21.9385 109.752 21.6807C109.905 21.417 110.016 21.1123 110.086 20.7666C110.163 20.4209 110.201 20.0488 110.201 19.6504V19.4658C110.201 19.0791 110.163 18.7158 110.086 18.376C110.016 18.0303 109.902 17.7256 109.744 17.4619C109.591 17.1924 109.389 16.9814 109.137 16.8291C108.885 16.6768 108.581 16.6006 108.223 16.6006C107.866 16.6006 107.561 16.6768 107.309 16.8291C107.063 16.9814 106.861 17.1924 106.703 17.4619C106.55 17.7256 106.439 18.0303 106.369 18.376C106.298 18.7158 106.263 19.0791 106.263 19.4658ZM119.913 22.2344V10.8086H122.461V24.3086H120.167L119.913 22.2344ZM113.901 19.668V19.4834C113.901 18.7568 113.983 18.0977 114.147 17.5059C114.311 16.9082 114.551 16.3955 114.868 15.9678C115.184 15.54 115.574 15.209 116.037 14.9746C116.5 14.7402 117.027 14.623 117.619 14.623C118.175 14.623 118.662 14.7402 119.078 14.9746C119.5 15.209 119.857 15.543 120.15 15.9766C120.449 16.4043 120.689 16.9111 120.871 17.4971C121.052 18.0771 121.184 18.7129 121.266 19.4043V19.8086C121.184 20.4707 121.052 21.0859 120.871 21.6543C120.689 22.2227 120.449 22.7207 120.15 23.1484C119.857 23.5703 119.5 23.8984 119.078 24.1328C118.656 24.3672 118.164 24.4844 117.601 24.4844C117.009 24.4844 116.482 24.3643 116.019 24.124C115.562 23.8838 115.175 23.5469 114.859 23.1133C114.548 22.6797 114.311 22.1699 114.147 21.584C113.983 20.998 113.901 20.3594 113.901 19.668ZM116.432 19.4834V19.668C116.432 20.0605 116.461 20.4268 116.52 20.7666C116.584 21.1064 116.687 21.4082 116.828 21.6719C116.974 21.9297 117.162 22.1318 117.39 22.2783C117.625 22.4189 117.909 22.4893 118.243 22.4893C118.676 22.4893 119.034 22.3926 119.315 22.1992C119.596 22 119.81 21.7275 119.957 21.3818C120.109 21.0361 120.197 20.6377 120.22 20.1865V19.0352C120.203 18.666 120.15 18.335 120.062 18.042C119.98 17.7432 119.857 17.4883 119.693 17.2773C119.535 17.0664 119.335 16.9023 119.095 16.7852C118.861 16.668 118.583 16.6094 118.26 16.6094C117.932 16.6094 117.651 16.6855 117.417 16.8379C117.182 16.9844 116.992 17.1865 116.845 17.4443C116.705 17.7021 116.599 18.0068 116.529 18.3584C116.464 18.7041 116.432 19.0791 116.432 19.4834ZM127.111 14.7988V24.3086H124.571V14.7988H127.111ZM124.413 12.3203C124.413 11.9512 124.542 11.6465 124.799 11.4062C125.057 11.166 125.403 11.0459 125.836 11.0459C126.264 11.0459 126.607 11.166 126.865 11.4062C127.128 11.6465 127.26 11.9512 127.26 12.3203C127.26 12.6895 127.128 12.9941 126.865 13.2344C126.607 13.4746 126.264 13.5947 125.836 13.5947C125.403 13.5947 125.057 13.4746 124.799 13.2344C124.542 12.9941 124.413 12.6895 124.413 12.3203ZM131.681 16.8291V24.3086H129.15V14.7988H131.523L131.681 16.8291ZM131.312 19.2197H130.626C130.626 18.5166 130.717 17.8838 130.899 17.3213C131.081 16.7529 131.335 16.2695 131.664 15.8711C131.992 15.4668 132.381 15.1592 132.833 14.9482C133.29 14.7314 133.799 14.623 134.362 14.623C134.807 14.623 135.214 14.6875 135.583 14.8164C135.953 14.9453 136.269 15.1504 136.533 15.4316C136.802 15.7129 137.007 16.085 137.148 16.5479C137.294 17.0107 137.368 17.5762 137.368 18.2441V24.3086H134.819V18.2354C134.819 17.8135 134.76 17.4854 134.643 17.251C134.526 17.0166 134.353 16.8525 134.125 16.7588C133.902 16.6592 133.626 16.6094 133.298 16.6094C132.958 16.6094 132.663 16.6768 132.411 16.8115C132.165 16.9463 131.959 17.1338 131.795 17.374C131.637 17.6084 131.517 17.8838 131.435 18.2002C131.353 18.5166 131.312 18.8564 131.312 19.2197ZM145.313 14.7988H147.607V23.9922C147.607 24.8594 147.414 25.5947 147.027 26.1982C146.646 26.8076 146.113 27.2676 145.427 27.5781C144.742 27.8945 143.945 28.0527 143.037 28.0527C142.638 28.0527 142.216 28 141.771 27.8945C141.332 27.7891 140.91 27.625 140.505 27.4023C140.107 27.1797 139.773 26.8984 139.503 26.5586L140.62 25.0645C140.913 25.4043 141.252 25.668 141.639 25.8555C142.026 26.0488 142.454 26.1455 142.922 26.1455C143.379 26.1455 143.766 26.0605 144.083 25.8906C144.399 25.7266 144.642 25.4834 144.812 25.1611C144.982 24.8447 145.067 24.4609 145.067 24.0098V16.9961L145.313 14.7988ZM138.915 19.668V19.4834C138.915 18.7568 139.002 18.0977 139.178 17.5059C139.36 16.9082 139.615 16.3955 139.943 15.9678C140.277 15.54 140.681 15.209 141.156 14.9746C141.63 14.7402 142.167 14.623 142.764 14.623C143.397 14.623 143.927 14.7402 144.355 14.9746C144.783 15.209 145.134 15.543 145.41 15.9766C145.685 16.4043 145.899 16.9111 146.051 17.4971C146.209 18.0771 146.333 18.7129 146.42 19.4043V19.8086C146.333 20.4707 146.201 21.0859 146.025 21.6543C145.849 22.2227 145.618 22.7207 145.331 23.1484C145.043 23.5703 144.686 23.8984 144.258 24.1328C143.836 24.3672 143.333 24.4844 142.747 24.4844C142.161 24.4844 141.63 24.3643 141.156 24.124C140.687 23.8838 140.286 23.5469 139.952 23.1133C139.618 22.6797 139.36 22.1699 139.178 21.584C139.002 20.998 138.915 20.3594 138.915 19.668ZM141.446 19.4834V19.668C141.446 20.0605 141.484 20.4268 141.56 20.7666C141.636 21.1064 141.753 21.4082 141.912 21.6719C142.076 21.9297 142.278 22.1318 142.518 22.2783C142.764 22.4189 143.054 22.4893 143.388 22.4893C143.851 22.4893 144.229 22.3926 144.522 22.1992C144.815 22 145.035 21.7275 145.181 21.3818C145.328 21.0361 145.413 20.6377 145.436 20.1865V19.0352C145.424 18.666 145.375 18.335 145.287 18.042C145.199 17.7432 145.076 17.4883 144.917 17.2773C144.759 17.0664 144.554 16.9023 144.302 16.7852C144.05 16.668 143.751 16.6094 143.406 16.6094C143.072 16.6094 142.782 16.6855 142.536 16.8379C142.295 16.9844 142.093 17.1865 141.929 17.4443C141.771 17.7021 141.651 18.0068 141.569 18.3584C141.487 18.7041 141.446 19.0791 141.446 19.4834Z" fill="white"/>
<path d="M39.4855 0H0.241457C0.108199 0 0 0.10802 0 0.241278V37.7618C0 37.895 0.108199 38.0031 0.241457 38.0031H39.4855C39.6188 38.0031 39.7263 37.895 39.7263 37.7618V0.241278C39.7263 0.10802 39.6188 0 39.4855 0Z" fill="#0EC5D7"/>
<path d="M10.4994 8.36328V29.6396" stroke="white" stroke-width="3.52026"/>
<path d="M16.9136 8.36328V18.9612" stroke="white" stroke-width="3.51358"/>
<path d="M21.7997 8.36426V11.964H27.9203L32.3601 21.0831H36.3579L30.0086 8.36426H21.7997Z" fill="white"/>
<path d="M23.6266 15.4424V29.6395" stroke="white" stroke-width="4.0667"/>
</svg>
