<svg width="61" height="72" viewBox="0 0 61 72" fill="none" xmlns="http://www.w3.org/2000/svg">
<circle cx="40.6409" cy="56.2308" r="15.2308" fill="white"/>
<path d="M0.00801031 5.57719L0.0043214 5.53403C0.00226037 5.51972 0.00102868 5.50531 0.000632487 5.49086L0.0435385 5.48719L0.309618 5.46446L58.8533 38.265C58.9105 38.2963 58.9575 38.3436 58.9885 38.4011C59.0195 38.4587 59.0332 38.524 59.028 38.5892C59.0233 38.6565 58.9997 38.721 58.96 38.7752C58.9202 38.8294 58.8659 38.8711 58.8034 38.8954L43.6451 44.5391L42.0457 60.9295L42.0516 60.9985L42.0553 61.0417L42.009 61.1065L41.9575 61.1109L41.906 61.1153L41.7944 61.1249C41.7505 61.1412 41.703 61.1453 41.657 61.1366V61.1366C41.6165 61.1206 41.5812 61.0935 41.5552 61.0583V61.0583L32.3407 48.7402L15.8502 54.8803L15.7558 54.8884C15.6973 54.9053 15.636 54.9106 15.5755 54.9038C15.5338 54.8823 15.4969 54.8525 15.4671 54.8161C15.4372 54.7798 15.415 54.7378 15.4018 54.6925L0.14711 5.68706C0.14711 5.68706 0.000902607 5.59519 0.00801031 5.57719ZM2.92094 7.38933L35.9222 37.1287L43.4137 43.8544L57.8937 38.4688L2.92094 7.38933ZM6.4917 11.5368L38.812 45.7522C38.8543 45.7957 38.883 45.8506 38.8946 45.9103V45.9103L41.5401 58.555L42.9214 44.3661L6.4917 11.5368ZM41.0423 59.4063L38.3381 46.4797L32.891 48.5018L41.0423 59.4063ZM15.8196 54.1176L37.9831 45.8665L1.11389 6.88282L15.8196 54.1176Z" fill="#22577E"/>
</svg>
