<svg width="61" height="71" viewBox="0 0 61 71" fill="none" xmlns="http://www.w3.org/2000/svg">
<circle r="15.2308" transform="matrix(-1 0 0 1 20.1794 55.5081)" fill="white"/>
<path d="M60.8123 4.85454L60.816 4.81137C60.8181 4.79707 60.8193 4.78265 60.8197 4.7682L60.7768 4.76454L60.5107 4.7418L1.96699 37.5424C1.9098 37.5736 1.86284 37.6209 1.83183 37.6785C1.80082 37.736 1.78711 37.8014 1.79232 37.8666C1.79699 37.9338 1.82057 37.9983 1.86033 38.0525C1.9001 38.1067 1.95439 38.1484 2.01687 38.1728L17.1752 43.8164L18.7746 60.2068L18.7687 60.2759L18.765 60.319L18.8114 60.3839L18.8629 60.3883L18.9143 60.3927L19.0259 60.4022C19.0698 60.4185 19.1173 60.4226 19.1633 60.4139C19.2038 60.3979 19.2391 60.3708 19.2651 60.3357L28.4796 48.0175L44.9701 54.1577L45.0645 54.1657C45.123 54.1827 45.1843 54.1879 45.2448 54.1811C45.2865 54.1596 45.3234 54.1298 45.3532 54.0935C45.3831 54.0571 45.4053 54.0151 45.4185 53.9699L60.6732 4.9644C60.6732 4.9644 60.8194 4.87254 60.8123 4.85454ZM57.8994 6.66667L24.8982 36.4061L17.4066 43.1318L2.92658 37.7461L57.8994 6.66667ZM54.3286 10.8141L22.0083 45.0295C21.966 45.073 21.9373 45.128 21.9257 45.1877L19.2802 57.8324L17.8989 43.6434L54.3286 10.8141ZM19.778 58.6837L22.4822 45.757L27.9293 47.7792L19.778 58.6837ZM45.0007 53.395L22.8372 45.1438L59.7064 6.16016L45.0007 53.395Z" fill="#22577E"/>
</svg>
