<svg width="116" height="115" viewBox="0 0 116 115" fill="none" xmlns="http://www.w3.org/2000/svg">
<circle r="15.2308" transform="matrix(-0.724028 -0.689771 -0.689771 0.724028 21.5334 45.7932)" fill="white"/>
<path d="M15.4472 47.376L21.6111 42.3549L21.6279 42.3149L21.6681 42.3319C21.7181 42.3384 21.7653 42.3583 21.8049 42.3894L23.3642 43.1859L24.769 40.0692C24.769 40.0692 24.769 40.0692 24.7892 40.0212L33.5997 30.2132C33.6485 30.1591 33.7162 30.1256 33.7892 30.1196C33.8621 30.1135 33.9347 30.1353 33.9923 30.1806L99.8957 82.5439L99.944 82.5642L99.9842 82.5811L99.964 82.6291C99.9536 82.6433 99.9467 82.6597 99.9439 82.677C99.9115 82.7236 99.8666 82.7602 99.8143 82.7825C99.7622 82.8 99.7058 82.7995 99.6539 82.781L19.0908 53.4427C19.0339 53.4157 18.9861 53.3727 18.9533 53.3191C18.9307 53.2704 18.9269 53.2152 18.9427 53.164L19.8549 49.4169L15.5973 47.6272C15.5523 47.6077 15.5131 47.5771 15.4832 47.5383C15.4534 47.4995 15.4339 47.4539 15.4267 47.4056C15.4195 47.3574 15.4247 47.3081 15.442 47.2626C15.4592 47.217 15.4879 47.1767 15.5252 47.1453L15.4472 47.376ZM33.2725 32.7855L26.4438 39.9534L94.5305 79.5752L33.2725 32.7855ZM94.0052 80.1266L25.3528 42.0695L24.3939 44.3717L21.8564 52.0784L94.0052 80.1266ZM20.1693 50.4711L22.7886 43.7901L21.8886 43.3177L20.1693 50.4711ZM19.9835 48.5241L21.4811 43.64L16.8606 47.319L19.9835 48.5241Z" fill="white"/>
</svg>
